<svg width="801" height="263" viewBox="0 0 801 263" fill="none" xmlns="http://www.w3.org/2000/svg">
<rect x="595.387" y="80.2808" width="25.5765" height="74.2936" fill="#3CAE50" stroke="white" stroke-width="2.43586" stroke-linejoin="round"/>
<rect x="596.604" y="48.6147" width="24.3586" height="23.1406" fill="#E14C3C" stroke="white" stroke-width="2.43586" stroke-linejoin="round"/>
<mask id="path-3-inside-1_980_16" fill="white">
<path d="M684.631 45.6389C696.003 44.5192 707.448 46.8656 717.461 52.37C727.475 57.8742 735.589 66.2789 740.739 76.4798C745.888 86.6807 747.831 98.2006 746.312 109.526C744.794 120.851 739.885 131.453 732.23 139.937C724.576 148.421 714.534 154.391 703.424 157.063C692.314 159.736 680.656 158.984 669.981 154.909C659.305 150.833 650.113 143.623 643.61 134.227C637.108 124.831 633.6 113.687 633.548 102.26L664.844 102.117C664.867 107.229 666.436 112.214 669.346 116.418C672.255 120.622 676.367 123.847 681.143 125.671C685.919 127.494 691.135 127.83 696.106 126.635C701.076 125.439 705.569 122.768 708.993 118.973C712.418 115.177 714.614 110.434 715.293 105.367C715.973 100.3 715.104 95.1463 712.8 90.5825C710.496 86.0187 706.866 82.2585 702.386 79.796C697.906 77.3334 692.786 76.2836 687.698 76.7846L684.631 45.6389Z"/>
</mask>
<path d="M684.631 45.6389C696.003 44.5192 707.448 46.8656 717.461 52.37C727.475 57.8742 735.589 66.2789 740.739 76.4798C745.888 86.6807 747.831 98.2006 746.312 109.526C744.794 120.851 739.885 131.453 732.23 139.937C724.576 148.421 714.534 154.391 703.424 157.063C692.314 159.736 680.656 158.984 669.981 154.909C659.305 150.833 650.113 143.623 643.61 134.227C637.108 124.831 633.6 113.687 633.548 102.26L664.844 102.117C664.867 107.229 666.436 112.214 669.346 116.418C672.255 120.622 676.367 123.847 681.143 125.671C685.919 127.494 691.135 127.83 696.106 126.635C701.076 125.439 705.569 122.768 708.993 118.973C712.418 115.177 714.614 110.434 715.293 105.367C715.973 100.3 715.104 95.1463 712.8 90.5825C710.496 86.0187 706.866 82.2585 702.386 79.796C697.906 77.3334 692.786 76.2836 687.698 76.7846L684.631 45.6389Z" fill="#3B71E6" stroke="white" stroke-width="4.87171" mask="url(#path-3-inside-1_980_16)"/>
<mask id="path-4-inside-2_980_16" fill="white">
<path d="M634.298 92.8052C636.113 81.7775 641.15 71.5331 648.774 63.3621C656.399 55.191 666.271 49.4586 677.147 46.8865L684.35 77.3427C679.484 78.4934 675.067 81.0581 671.656 84.7137C668.245 88.3694 665.991 92.9526 665.179 97.8864L634.298 92.8052Z"/>
</mask>
<path d="M634.298 92.8052C636.113 81.7775 641.15 71.5331 648.774 63.3621C656.399 55.191 666.271 49.4586 677.147 46.8865L684.35 77.3427C679.484 78.4934 675.067 81.0581 671.656 84.7137C668.245 88.3694 665.991 92.9526 665.179 97.8864L634.298 92.8052Z" fill="#F4BE27" stroke="white" stroke-width="4.87171" mask="url(#path-4-inside-2_980_16)"/>
<path d="M702.576 112.907L690.396 120.823L716.581 170.149L746.42 145.182L702.576 112.907Z" fill="#E14C3C" fill-opacity="0.87" stroke="white" stroke-width="2.43586"/>
<path d="M52.3439 168.646C46.4572 168.646 41.281 167.53 36.8153 165.297C33.3645 163.572 30.345 161.161 27.7569 158.066C25.2196 155.021 23.2658 151.621 21.8957 147.866C20.5255 144.06 19.8404 140.203 19.8404 136.295C19.8404 132.337 20.5762 128.607 22.0479 125.106C23.5196 121.553 25.7271 118.458 28.6704 115.819C30.0913 114.449 31.3854 113.764 32.5525 113.764C33.1615 113.764 33.7705 113.941 34.3794 114.296C34.9884 114.652 35.8003 115.261 36.8153 116.123C37.1705 116.428 36.9168 117.113 36.0541 118.179C35.1914 119.193 33.9227 120.589 32.2481 122.365C31.4361 123.177 30.9794 123.659 30.8779 123.811C27.9346 127.567 26.4629 131.373 26.4629 135.23C26.4629 137.716 27.148 140.076 28.5181 142.309C29.8883 144.491 31.9182 146.419 34.6078 148.094C37.9063 150.175 41.1288 151.215 44.2751 151.215C47.9289 151.215 51.1513 149.87 53.9424 147.18C56.7842 144.44 58.9664 140.964 60.4888 136.752C62.0112 132.54 62.7724 128.277 62.7724 123.964C62.7724 121.274 62.4679 118.788 61.8589 116.504C61.3007 114.423 60.6156 112.444 59.8037 110.566C58.9917 108.689 57.926 106.456 56.6066 103.868C56.0991 102.802 55.617 101.483 55.1603 99.9096C54.6529 98.3365 54.1454 97.017 53.6379 95.9514C53.1304 94.8857 52.4454 93.9722 51.5827 93.211L48.9184 90.699C45.2647 87.3497 42.296 84.4572 40.0123 82.0213C37.7287 79.5854 35.8257 76.9974 34.3033 74.257C34.1003 73.851 34.1764 73.7749 34.5317 74.0287C34.9376 74.2316 35.0138 74.1809 34.76 73.8764L33.8466 72.0495L34.0749 72.8107C33.3137 72.8107 32.7048 72.1003 32.2481 70.6793C31.7913 69.2584 31.4361 67.6853 31.1824 65.9599C30.9794 64.1837 30.8779 62.9404 30.8779 62.23C30.8271 61.4688 30.9033 60.3777 31.1062 58.9568C31.2585 58.1956 31.3346 57.4598 31.3346 56.7493C31.3346 54.9732 30.4973 53.6791 28.8226 52.8672C26.8942 52.0552 24.8136 50.6597 22.5807 48.6805C20.3479 46.7014 19.1046 44.8745 18.8508 43.1998C18.8001 42.9969 18.7747 42.7431 18.7747 42.4386C18.7747 41.4237 19.1807 40.9162 19.9927 40.9162C20.6524 40.9162 21.4643 41.1953 22.4285 41.7536C23.4434 42.3118 24.3823 42.87 25.245 43.4282C26.1077 43.9864 26.6913 44.367 26.9957 44.57C27.7569 45.179 28.1883 45.5342 28.2898 45.6357C29.254 46.4984 30.0913 47.1835 30.8018 47.691C31.5122 48.1477 32.1973 48.376 32.857 48.376C33.6182 48.376 34.2018 47.9447 34.6078 47.082C35.6227 45.1536 36.866 43.2506 38.3377 41.373C39.8094 39.4446 41.3318 37.7699 42.9049 36.349C45.5945 33.8117 48.6393 31.7057 52.0394 30.031C55.4902 28.3563 58.8902 27.519 62.2395 27.519C65.6396 27.519 68.6844 28.4325 71.374 30.2594C72.9979 31.325 74.2412 32.2892 75.1039 33.1519C76.0173 34.0146 76.4741 35.0042 76.4741 36.1206C76.4741 36.7804 76.3472 37.3639 76.0935 37.8714L74.8755 40.6118C74.0128 42.6416 73.1755 44.3163 72.3636 45.6357C71.6024 46.9551 70.562 48.3253 69.2426 49.7462C67.8724 51.1671 66.5277 52.3343 65.2082 53.2478C63.8888 54.1612 62.3157 54.9732 60.4888 55.6836C59.7276 55.9373 58.8395 56.1403 57.8245 56.2926C55.7439 56.7493 54.1454 57.2568 53.029 57.815C51.9125 58.3225 51.3543 59.1852 51.3543 60.4031C51.3543 60.8091 51.3797 61.1135 51.4304 61.3165C51.8364 63.0927 53.029 64.9196 55.0081 66.7972C57.038 68.6748 59.8037 70.9077 63.3052 73.4958C64.6246 74.5107 65.8933 75.5257 67.1112 76.5406C68.3799 77.5048 69.3441 78.3421 70.0038 79.0526C73.8098 83.1124 77.0323 86.9691 79.6711 90.6229C82.31 94.2767 84.4921 98.2096 86.2175 102.422C87.8414 106.126 89.1354 110.262 90.0996 114.829C91.0638 119.346 91.5459 123.811 91.5459 128.226C91.5459 137.665 89.3384 145.125 84.9234 150.606C84.01 151.773 83.0712 153.016 82.107 154.336C80.2293 156.873 78.6054 158.903 77.2353 160.425C75.9158 161.948 74.3427 163.343 72.5158 164.612C70.6889 165.881 68.6083 166.718 66.2739 167.124C61.0977 168.139 56.4544 168.646 52.3439 168.646ZM66.2739 45.5596L67.3396 44.0372C68.2023 42.7685 68.8366 41.7789 69.2426 41.0685C69.6486 40.358 69.8516 39.6983 69.8516 39.0893C69.8516 37.9222 68.862 37.3132 66.8829 37.2624C65.5127 37.161 64.2187 37.7192 63.0007 38.9371C61.8336 40.1043 60.5649 41.6774 59.1947 43.6566L58.129 45.1029C57.926 45.3566 57.3678 46.0163 56.4544 47.082C55.5917 48.0969 54.8051 49.1119 54.0946 50.1268C53.4349 51.1418 53.1051 51.903 53.1051 52.4104C53.1051 52.9179 53.4349 53.1716 54.0946 53.1716C54.5514 53.1716 55.1096 53.0701 55.7693 52.8672C60.3365 51.5985 63.8381 49.1626 66.2739 45.5596ZM42.6004 66.1121C42.6004 65.9091 42.5243 65.6554 42.3721 65.3509C42.0676 65.5539 41.89 65.7569 41.8392 65.9599C41.8392 66.1121 41.9154 66.3151 42.0676 66.5688C42.4228 66.5688 42.6004 66.4166 42.6004 66.1121ZM43.2094 66.4166C43.2602 66.8226 43.3109 67.1017 43.3616 67.2539L43.4378 67.33C43.5393 67.4315 43.5139 67.2286 43.3616 66.7211L43.2094 66.4166ZM113.545 217.059C111.363 217.059 109.181 216.12 106.998 214.243C104.816 212.416 102.913 210.208 101.289 207.62C99.6654 205.032 98.6251 202.748 98.1684 200.769C97.5087 197.978 97.1788 194.578 97.1788 190.569C97.1788 187.88 97.3818 183.896 97.7878 178.618C97.9908 176.132 98.1177 174.229 98.1684 172.909L98.549 167.429C99.0565 159.055 99.564 152.179 100.071 146.8C100.579 141.37 101.34 136.041 102.355 130.815C103.471 124.826 104.36 119.447 105.019 114.677C105.73 109.856 106.085 105.111 106.085 100.442C106.085 93.2364 105.07 87.4512 103.04 83.087C102.939 83.087 102.888 83.0362 102.888 82.9348C105.374 80.1437 108.166 78.7481 111.261 78.7481C112.733 78.7481 114.281 79.0526 115.904 79.6616C117.579 80.2198 119.457 81.0571 121.537 82.1735C123.72 83.3915 125.572 84.6601 127.094 85.9796C128.667 87.299 129.987 88.8468 131.052 90.6229C131.154 90.8259 131.585 91.9931 132.347 94.1245C133.311 97.3723 134.021 99.0469 134.478 99.1484C134.681 99.1992 135.214 98.8693 136.076 98.1589C136.99 97.3976 137.853 96.6111 138.665 95.7991C139.476 94.9872 139.756 94.6573 139.502 94.8095C141.329 93.4901 143.105 92.6274 144.83 92.2215C146.556 91.7647 148.789 91.4856 151.529 91.3841C154.98 91.3841 158.278 92.2722 161.425 94.0483C164.571 95.7737 167.286 98.0574 169.569 100.899C171.549 103.335 173.046 106.177 174.061 109.425C175.075 112.672 175.583 116.073 175.583 119.625C175.583 122.974 175.152 126.273 174.289 129.52C173.426 132.768 172.208 135.737 170.635 138.427C169.113 141.015 166.728 143.324 163.48 145.354C160.232 147.383 156.629 148.982 152.671 150.149C148.712 151.266 144.983 151.824 141.481 151.824C139.096 151.824 137.041 151.57 135.315 151.063C135.011 151.012 134.072 157.533 132.499 170.626C130.926 183.718 130.038 191.762 129.835 194.756C129.632 196.989 128.845 199.627 127.475 202.672C126.155 205.717 124.481 208.508 122.451 211.046C120.472 213.583 118.467 215.359 116.437 216.374C115.524 216.831 114.56 217.059 113.545 217.059ZM157.542 111.175C157.542 107.826 156.883 104.883 155.563 102.345C154.295 99.8081 152.518 98.5395 150.235 98.5395C148.509 98.5395 146.581 99.3768 144.45 101.051C140.999 103.792 138.588 106.913 137.218 110.414C135.899 113.865 135.239 117.925 135.239 122.594L135.315 124.877L135.239 130.891C135.239 133.58 135.544 135.636 136.153 137.056C136.762 138.477 138.005 139.188 139.882 139.188C141.506 139.188 143.612 138.579 146.2 137.361C148.484 136.244 150.489 134.113 152.214 130.967C153.99 127.82 155.335 124.395 156.248 120.691C157.213 116.986 157.644 113.814 157.542 111.175ZM218.287 167.505C215.445 167.505 212.045 166.794 208.086 165.373C204.128 163.952 201.033 162.455 198.8 160.882C195.146 158.294 192.431 155.655 190.655 152.966C188.879 150.276 187.686 146.8 187.077 142.537C186.874 140.507 186.773 138.959 186.773 137.894C186.773 133.022 187.509 127.871 188.98 122.441C190.503 117.011 192.609 111.937 195.298 107.217C198.039 102.447 201.109 98.6663 204.509 95.8752C209.279 92.0185 216.51 89.3796 226.203 87.9587C226.66 87.8572 227.269 87.8065 228.03 87.8065C233.257 87.8065 235.87 92.4752 235.87 101.813C235.87 102.929 235.947 104.122 236.099 105.39C236.302 106.608 236.505 107.75 236.708 108.816C237.215 111.455 237.469 113.434 237.469 114.753C237.469 116.682 237.088 118.661 236.327 120.691C234.805 124.7 232.902 127.947 230.618 130.434C228.334 132.87 225.315 134.773 221.56 136.143C219.073 137.056 217.119 138.046 215.698 139.112C214.278 140.177 213.567 141.7 213.567 143.679C213.567 144.491 213.77 145.506 214.176 146.724C214.481 147.536 214.633 148.475 214.633 149.54C214.633 150.098 214.582 151.037 214.481 152.357C214.328 153.321 214.252 154.31 214.252 155.325C214.252 157.051 214.633 158.472 215.394 159.588C216.155 160.755 217.525 161.567 219.504 162.024C220.316 162.227 221.205 162.328 222.169 162.328C225.62 162.328 229.121 161.161 232.673 158.827C236.276 156.493 239.397 153.955 242.036 151.215C244.726 148.424 247.821 144.998 251.323 140.939C251.475 140.786 251.83 140.279 252.389 139.416C257.818 131.601 261.295 127.694 262.817 127.694C263.223 127.694 263.502 127.998 263.654 128.607C263.705 128.81 263.731 129.14 263.731 129.597C263.731 131.373 263.122 133.555 261.904 136.143C260.736 138.731 259.29 141.192 257.565 143.527C255.89 145.81 254.368 147.434 252.998 148.398C251.983 149.109 250.917 149.997 249.8 151.063C248.684 152.128 247.618 153.169 246.603 154.184C244.878 155.909 243.482 157.254 242.417 158.218C241.351 159.182 240.159 160.07 238.839 160.882C236.2 162.506 233.561 163.724 230.923 164.536C228.284 165.399 224.833 166.312 220.57 167.276C219.91 167.429 219.149 167.505 218.287 167.505ZM215.47 132.565C217.348 132.565 219.479 131.018 221.864 127.922C224.249 124.776 226.355 121.299 228.182 117.493C230.009 113.637 230.923 111.049 230.923 109.729C230.923 108.714 230.567 108.207 229.857 108.207C228.385 108.207 226.33 109.475 223.691 112.013C221.052 114.55 219.657 115.87 219.504 115.971C218.743 116.986 217.652 119.498 216.231 123.507C214.81 127.465 214.1 130.155 214.1 131.576C214.1 131.982 214.176 132.235 214.328 132.337C214.734 132.489 215.115 132.565 215.47 132.565ZM261.371 139.416C260.559 136.321 260.153 132.997 260.153 129.444C260.153 124.319 260.965 119.193 262.589 114.068C264.213 108.943 266.42 104.223 269.211 99.9096C271.089 97.1693 273.601 94.2513 276.747 91.1558C279.944 88.0602 283.395 85.4467 287.1 83.3154C290.855 81.184 294.407 80.1183 297.756 80.1183C300.75 80.1183 303.389 81.1079 305.673 83.087L307.804 84.9139C309.783 86.5885 311.306 88.0095 312.372 89.1766C313.488 90.2931 314.427 91.6379 315.188 93.211C315.949 94.7842 316.406 96.6618 316.558 98.8439C316.609 99.4022 316.634 100.442 316.634 101.965C316.634 104.857 316.355 106.887 315.797 108.055C315.188 109.374 314.224 110.414 312.904 111.175C311.636 111.886 310.342 112.241 309.022 112.241C307.906 112.241 306.992 111.962 306.282 111.404C305.622 110.846 305.292 110.034 305.292 108.968C305.292 108.46 305.368 107.902 305.521 107.293C305.571 107.09 305.825 106.304 306.282 104.934C306.84 103.259 307.271 101.838 307.576 100.671C307.88 99.5036 308.033 98.4126 308.033 97.3976C308.033 94.6573 306.662 93.2618 303.922 93.211C303.719 93.211 302.755 94.1752 301.03 96.1036C299.304 97.9812 297.68 99.8081 296.158 101.584C294.635 103.36 294.179 103.944 294.788 103.335C294.483 104.401 293.773 105.796 292.656 107.522C291.794 108.689 291.134 109.856 290.677 111.023C290.068 112.749 289.586 114.017 289.231 114.829C289.028 115.387 288.698 116.276 288.241 117.493C287.785 118.661 287.404 119.777 287.1 120.843C286.694 122.467 286.491 124.217 286.491 126.095C286.491 128.835 286.922 131.525 287.785 134.164C288.647 136.752 289.891 138.807 291.514 140.33C293.24 141.903 295.168 143.197 297.3 144.212C299.431 145.176 301.512 145.658 303.542 145.658C306.079 145.658 308.236 144.871 310.012 143.298C310.824 142.537 312.346 141.37 314.579 139.797C316.863 138.122 318.715 136.676 320.136 135.458C321.607 134.24 322.648 133.149 323.257 132.185C323.713 131.373 324.348 129.952 325.16 127.922C325.819 126.349 326.352 125.131 326.758 124.268C327.215 123.355 327.722 122.568 328.281 121.908C329.702 120.285 330.767 119.473 331.478 119.473C332.036 119.473 332.315 120.031 332.315 121.147C332.315 122.162 332.112 123.431 331.706 124.953C331.3 126.476 330.843 127.744 330.336 128.759C328.966 131.5 326.86 134.544 324.018 137.894C321.227 141.192 318.182 144.212 314.883 146.952C311.585 149.642 308.565 151.545 305.825 152.661C299.837 155.198 293.849 156.467 287.861 156.467C285.425 156.467 282.989 156.239 280.553 155.782C275.377 154.767 271.19 152.991 267.993 150.454C264.796 147.866 262.589 144.186 261.371 139.416ZM351.269 167.809C349.239 167.809 347.133 167.251 344.951 166.134C342.82 165.069 341.221 163.8 340.155 162.328C338.329 159.943 336.958 157.558 336.045 155.173C335.182 152.737 334.599 150.301 334.294 147.866C333.99 145.43 333.812 142.436 333.761 138.883C333.761 137.97 333.939 134.443 334.294 128.303C335.157 112.267 335.588 101.381 335.588 95.6469C335.588 90.5214 335.309 87.9587 334.751 87.9587C332.67 87.908 330.387 87.6035 327.9 87.0453C325.413 86.487 323.231 85.5482 321.354 84.2288C319.476 82.8586 318.639 81.0317 318.842 78.7481C319.045 77.1242 319.552 76.0078 320.364 75.3988C321.176 74.7899 322.267 74.4854 323.637 74.4854C324.399 74.4854 325.794 74.6376 327.824 74.9421C329.6 75.2973 331.097 75.4749 332.315 75.4749C334.243 75.4749 335.715 74.9421 336.73 73.8764C337.339 73.2167 337.72 72.2779 337.872 71.06C338.024 69.7913 338.1 68.1674 338.1 66.1882C338.1 64.7166 338.126 63.7016 338.176 63.1434L338.938 55.912C339.344 53.2224 339.648 50.5328 339.851 47.8432C339.902 47.2342 339.775 46.1178 339.47 44.4939C339.42 44.1387 339.344 43.5805 339.242 42.8192C339.141 42.0073 339.09 41.3222 339.09 40.764C339.09 39.2416 339.445 38.1251 340.155 37.4147C341.373 36.1968 342.82 35.5878 344.494 35.5878C345.459 35.5878 346.397 35.74 347.311 36.0445C348.275 36.2983 349.442 36.7042 350.812 37.2624C353.451 38.3789 356.648 40.2058 360.404 42.7431C362.18 43.9611 363.677 44.9506 364.895 45.7118C366.113 46.473 367.381 47.1327 368.701 47.691C369.107 47.8432 369.411 48.6552 369.614 50.1268C369.817 51.5985 369.969 52.994 370.071 54.3134C370.172 55.6329 370.223 56.4702 370.223 56.8254L370.299 58.5001C370.654 60.7837 370.832 62.5345 370.832 63.7524C370.832 65.224 370.604 66.9494 370.147 68.9286C369.995 69.436 369.919 69.8928 369.919 70.2987C369.919 71.8212 370.908 72.5824 372.887 72.5824C373.496 72.5824 374.46 72.4809 375.78 72.2779C377.099 72.0749 378.064 71.9988 378.672 72.0495C384.559 72.0495 389.608 72.9376 393.82 74.7137C395.343 75.3227 396.104 76.16 396.104 77.2257C396.104 78.1899 395.47 79.2302 394.201 80.3467C392.983 81.4123 391.562 82.3258 389.938 83.087C388.314 83.7974 387.046 84.1527 386.132 84.1527C385.523 84.1527 385.219 83.9497 385.219 83.5437H384.762L380.347 83.4676C373.141 83.4676 369.513 84.0766 369.462 85.2945C369.31 86.5632 369.234 88.2124 369.234 90.2423V94.8095C369.234 96.6364 369.208 97.8797 369.157 98.5395C369.005 100.722 368.929 103.005 368.929 105.39L369.005 114.22C369.005 118.585 368.802 122.035 368.396 124.573C368.295 125.029 368.244 125.867 368.244 127.085C368.244 128.201 368.345 130.129 368.548 132.87C368.751 135.915 368.853 138.249 368.853 139.873C368.853 144.136 368.193 146.977 366.874 148.398C365.554 149.87 364.489 151.164 363.677 152.281C362.865 153.346 362.357 154.463 362.154 155.63C361.901 156.493 361.647 157.203 361.393 157.761C360.835 158.979 360.53 159.969 360.48 160.73C360.429 161.237 360.277 161.593 360.023 161.796C359.769 161.999 359.439 162.151 359.033 162.252C358.78 162.354 358.526 162.481 358.272 162.633C358.018 162.785 357.815 163.039 357.663 163.394C357.156 164.917 356.344 166.033 355.227 166.743C354.111 167.454 352.791 167.809 351.269 167.809ZM390.395 133.555L390.471 130.358C390.42 129.495 390.395 128.226 390.395 126.552C390.395 121.426 390.725 116.377 391.385 111.404C392.044 106.38 393.008 100.29 394.277 93.1349C395.8 84.7109 396.815 78.2407 397.322 73.7242C397.423 72.963 397.829 72.5824 398.54 72.5824C399.504 72.5824 400.874 73.1913 402.65 74.4093C404.477 75.6272 406.228 76.972 407.903 78.4436C409.628 79.9153 410.719 80.9049 411.176 81.4123C413.054 83.29 414.779 85.3452 416.352 87.5781C417.925 89.7602 418.712 91.7901 418.712 93.6677C418.712 93.9215 418.661 94.3021 418.56 94.8095C418.458 95.0633 418.28 96.7379 418.027 99.8335C417.773 102.929 417.672 104.477 417.722 104.477C418.636 104.578 419.625 104.02 420.691 102.802C421.757 101.584 423.355 99.529 425.487 96.6364C427.669 93.5409 429.546 91.105 431.119 89.3289C432.743 87.502 434.317 86.4109 435.839 86.0557C436.6 85.9034 437.361 85.8273 438.123 85.8273C440.761 85.8273 443.299 86.7154 445.735 88.4915C448.17 90.2169 450.15 92.4498 451.672 95.1902C453.194 97.8797 453.956 100.569 453.956 103.259C453.956 104.172 453.829 105.137 453.575 106.152C452.408 110.871 450.911 114.981 449.084 118.483C447.308 121.985 444.796 123.735 441.548 123.735C440.99 123.735 440.381 123.659 439.721 123.507C438.554 123.152 437.564 122.441 436.752 121.376C435.991 120.31 435.103 118.788 434.088 116.808C433.175 114.88 432.464 113.611 431.957 113.002C431.602 112.596 431.424 111.962 431.424 111.099C431.424 109.881 431.83 107.953 432.642 105.314C433.251 103.183 433.555 101.838 433.555 101.28C433.555 100.772 433.428 100.493 433.175 100.442C432.16 99.9857 430.637 100.925 428.608 103.259C426.628 105.593 424.675 108.334 422.746 111.48C420.818 114.576 419.575 116.758 419.016 118.026C417.646 121.122 416.961 124.674 416.961 128.683C416.961 131.119 417.164 133.606 417.57 136.143C418.027 138.68 418.686 141.801 419.549 145.506C420.158 148.145 420.589 150.098 420.843 151.367C420.945 151.976 420.995 152.433 420.995 152.737C420.995 155.122 419.879 156.848 417.646 157.913C415.464 159.03 412.952 159.588 410.11 159.588C408.994 159.588 408.004 159.512 407.142 159.36C403.031 158.446 399.758 157 397.322 155.021C394.886 152.991 393.11 150.251 391.994 146.8C390.928 143.349 390.395 138.934 390.395 133.555ZM512.416 156.239C511.807 155.427 510.615 152.966 508.839 148.855C507.113 144.694 506.174 142.157 506.022 141.243C505.87 141.142 504.525 142.613 501.988 145.658C499.45 148.652 498.055 150.301 497.801 150.606C495.619 152.281 493.183 153.625 490.494 154.64C487.855 155.655 485.19 156.163 482.501 156.163C480.572 156.163 478.695 155.858 476.868 155.249C474.178 154.387 471.387 152.839 468.495 150.606C465.653 148.373 463.293 145.785 461.415 142.842C459.538 139.898 458.599 136.93 458.599 133.935C458.599 133.073 458.726 132.083 458.98 130.967C459.995 126.704 460.984 123.101 461.948 120.158C462.913 117.164 464.283 114.119 466.059 111.023C467.886 107.928 470.195 105.111 472.986 102.574C474.863 100.95 477.071 99.6559 479.608 98.6917C482.146 97.6768 485.14 96.6872 488.59 95.723L491.102 94.9618C492.523 94.5051 493.792 94.2767 494.908 94.2767C496.279 94.2767 497.497 94.5558 498.562 95.114C499.628 95.6215 500.973 96.4842 502.597 97.7021C504.83 99.326 506.758 100.544 508.382 101.356C508.94 101.61 509.93 102.345 511.351 103.563C511.503 103.716 511.883 104.071 512.492 104.629C513.152 105.137 513.736 105.543 514.243 105.847C514.751 106.101 515.182 106.228 515.537 106.228C516.248 106.228 516.78 105.796 517.136 104.934C517.389 104.223 517.516 103.538 517.516 102.878C517.516 102.472 517.466 102.041 517.364 101.584C517.263 101.128 517.212 100.722 517.212 100.366C517.212 99.6559 517.542 98.9454 518.201 98.235C518.506 97.7782 519.191 97.5499 520.257 97.5499C521.221 97.5499 522.363 97.7275 523.682 98.0827C525.001 98.438 525.813 98.7424 526.118 98.9962L528.554 100.747C531.446 102.726 533.755 104.375 535.481 105.695C537.206 107.014 537.993 107.852 537.84 108.207C537.637 108.562 537.663 109.146 537.917 109.958C538.17 110.769 538.602 111.962 539.211 113.535C540.023 115.311 540.454 116.555 540.505 117.265C540.555 118.382 540.429 120.005 540.124 122.137C539.82 123.964 539.667 125.334 539.667 126.247C539.667 126.806 539.693 127.237 539.743 127.541C539.743 127.998 539.566 129.647 539.211 132.489C538.246 139.848 537.764 144.973 537.764 147.866C537.764 151.012 538.246 152.281 539.211 151.672C541.849 150.251 544.336 148.373 546.67 146.039C549.056 143.704 551.415 141.015 553.75 137.97C554.003 137.615 554.638 136.422 555.653 134.392C557.429 130.789 559.027 127.871 560.448 125.638C561.869 123.405 563.112 122.365 564.178 122.517C565.599 122.72 566.31 123.659 566.31 125.334C566.31 128.429 564.127 133.047 559.763 139.188C555.45 145.277 550.324 150.809 544.387 155.782C538.449 160.705 533.096 163.343 528.325 163.699H527.716C524.925 163.648 522.134 162.937 519.343 161.567C516.603 160.197 514.294 158.421 512.416 156.239ZM499.628 139.721L501.531 137.818C502.089 136.904 502.622 135.965 503.13 135.001C503.637 133.986 504.043 132.997 504.347 132.032C504.601 131.424 504.956 130.815 505.413 130.206C505.87 129.546 506.327 128.962 506.783 128.455C508.001 127.135 508.788 126.044 509.143 125.182C510.006 123.152 510.437 121.096 510.437 119.016C510.437 116.682 509.828 114.753 508.61 113.231C507.392 111.708 505.54 110.947 503.053 110.947C502.241 110.947 501.201 111.074 499.932 111.328H499.78C499.07 110.769 498.334 110.49 497.573 110.49C496.253 110.49 494.934 111.252 493.614 112.774C492.346 114.246 491.229 115.92 490.265 117.798C489.352 119.676 488.743 121.147 488.438 122.213L486.916 125.791C485.241 129.495 483.82 132.946 482.653 136.143C481.537 139.289 480.978 141.954 480.978 144.136C480.978 147.028 482.196 148.475 484.632 148.475C485.596 148.475 486.764 148.246 488.134 147.789C490.671 146.876 492.65 145.886 494.071 144.821C495.543 143.704 497.395 142.004 499.628 139.721Z" fill="black"/>
<path d="M171.99 178.417V180.441L170.978 180.578C168.552 180.87 167.093 181.234 166.601 181.672C166.127 182.11 165.889 182.958 165.889 184.216V185.201L165.835 194.365L165.862 204.842L165.889 210.177C165.889 211.745 165.962 212.73 166.108 213.131C166.272 213.532 166.546 213.833 166.929 214.034C167.586 214.38 168.935 214.718 170.978 215.046C171.196 215.083 171.534 215.137 171.99 215.21V217.235C168.251 217.034 164.959 216.934 162.114 216.934C159.415 216.934 155.841 217.034 151.391 217.235V215.21C154.236 214.681 155.795 214.362 156.069 214.253C156.488 214.089 156.807 213.852 157.026 213.541C157.3 213.122 157.446 212.265 157.464 210.97C157.5 207.943 157.519 202.791 157.519 195.514L157.436 185.556V184.736C157.436 183.277 157.227 182.338 156.807 181.918C156.388 181.499 154.974 181.088 152.567 180.687C152.294 180.632 151.902 180.55 151.391 180.441V178.417C156.078 178.617 159.588 178.718 161.923 178.718C164.421 178.718 167.777 178.617 171.99 178.417ZM173.057 196.006V194.037C175.464 193.526 177.461 192.988 179.048 192.423C180.652 191.857 182.239 191.137 183.807 190.262L185.23 191.082C184.975 192.468 184.801 193.982 184.71 195.623C186.735 193.326 188.257 191.885 189.279 191.301C190.3 190.699 191.504 190.398 192.89 190.398C194.257 190.398 195.434 190.663 196.419 191.192C197.422 191.721 198.16 192.395 198.634 193.216C199.127 194.019 199.446 195.104 199.592 196.471C199.683 197.329 199.729 199.389 199.729 202.654L199.701 207.523C199.701 210.66 199.738 212.511 199.811 213.076C199.884 213.624 200.057 214.025 200.33 214.28C200.622 214.517 201.434 214.782 202.765 215.073C202.984 215.128 203.33 215.21 203.805 215.32V217.235C200.759 217.034 198.397 216.934 196.719 216.934C195.023 216.934 192.525 217.034 189.224 217.235V215.32C190.628 214.973 191.485 214.663 191.795 214.39C192.105 214.098 192.297 213.624 192.37 212.967C192.479 212.055 192.534 209.037 192.534 203.912C192.534 200.283 192.379 198.095 192.069 197.347C191.558 196.161 190.601 195.569 189.197 195.569C188.175 195.569 187.236 195.933 186.379 196.663C185.54 197.392 185.002 198.323 184.765 199.453C184.528 200.584 184.409 203.073 184.409 206.921C184.409 210.368 184.482 212.511 184.628 213.35C184.701 213.806 184.865 214.143 185.121 214.362C185.376 214.563 186.233 214.882 187.692 215.32V217.235C184.92 217.034 182.604 216.934 180.744 216.934C179.011 216.934 176.449 217.034 173.057 217.235V215.32C175.063 214.791 176.193 214.408 176.449 214.171C176.722 213.934 176.905 213.386 176.996 212.529C177.16 210.56 177.242 208.006 177.242 204.87C177.242 200.073 177.187 197.438 177.078 196.964C176.859 196.161 176.303 195.76 175.409 195.76C174.844 195.76 174.06 195.842 173.057 196.006ZM206.294 208.18H208.756C209.23 210.696 210.014 212.493 211.109 213.569C212.221 214.627 213.507 215.155 214.966 215.155C216.078 215.155 216.954 214.864 217.592 214.28C218.248 213.678 218.577 212.949 218.577 212.092C218.577 211.307 218.258 210.551 217.619 209.821C216.981 209.092 215.349 207.97 212.723 206.456C210.115 204.943 208.373 203.566 207.498 202.326C206.604 201.085 206.157 199.699 206.157 198.168C206.157 195.924 207.06 194.028 208.865 192.478C210.671 190.909 213.261 190.125 216.634 190.125C219.06 190.125 221.549 190.672 224.103 191.766C223.866 192.769 223.601 195.058 223.309 198.633L220.929 198.55C220.546 196.38 219.89 194.848 218.96 193.955C218.048 193.061 216.981 192.614 215.759 192.614C214.756 192.614 213.972 192.879 213.406 193.408C212.859 193.918 212.586 194.584 212.586 195.405C212.586 196.116 212.832 196.763 213.324 197.347C213.999 198.149 215.504 199.207 217.838 200.52C220.774 202.18 222.689 203.611 223.583 204.815C224.476 206.019 224.923 207.432 224.923 209.055C224.923 211.262 224.084 213.286 222.407 215.128C220.729 216.97 217.838 217.891 213.735 217.891C211.364 217.891 208.756 217.472 205.911 216.633C206.148 213.423 206.276 210.605 206.294 208.18ZM235.729 177.404C236.951 177.404 237.99 177.842 238.847 178.718C239.723 179.575 240.16 180.614 240.16 181.836C240.16 183.058 239.723 184.107 238.847 184.982C237.99 185.839 236.951 186.268 235.729 186.268C234.507 186.268 233.458 185.839 232.583 184.982C231.726 184.107 231.297 183.058 231.297 181.836C231.297 180.614 231.726 179.575 232.583 178.718C233.44 177.842 234.489 177.404 235.729 177.404ZM227.796 195.788V193.818C231.935 193.088 235.51 191.821 238.519 190.015L239.914 190.754C239.659 192.961 239.495 194.93 239.422 196.663C239.294 199.234 239.23 203.301 239.23 208.864C239.23 211.198 239.312 212.684 239.477 213.323C239.586 213.742 239.796 214.061 240.106 214.28C240.434 214.481 241.528 214.827 243.388 215.32V217.235C240.853 217.034 238.537 216.934 236.44 216.934C234.434 216.934 231.507 217.034 227.659 217.235V215.32L228.37 215.155C229.975 214.791 230.923 214.481 231.215 214.225C231.507 213.952 231.689 213.478 231.762 212.803C231.926 211.07 232.008 207.496 232.008 202.079C232.008 198.943 231.926 197.119 231.762 196.608C231.543 195.933 231.024 195.596 230.203 195.596C229.492 195.596 228.689 195.66 227.796 195.788ZM272.358 191.055L272.632 191.575C272.03 192.56 271.501 193.599 271.045 194.693C269.878 194.474 268.683 194.356 267.462 194.338C268.392 195.979 268.857 197.584 268.857 199.152C268.857 200.885 268.419 202.471 267.544 203.912C266.686 205.353 265.373 206.502 263.604 207.359C261.854 208.216 260.012 208.645 258.079 208.645C257.659 208.645 257.158 208.617 256.574 208.563C255.99 208.508 255.325 208.435 254.577 208.344C253.428 209.383 252.854 210.204 252.854 210.806C252.854 211.134 253.063 211.408 253.483 211.627C254.139 211.973 255.762 212.146 258.352 212.146L262.866 212.092C266.55 212.092 268.984 212.575 270.17 213.541C271.355 214.508 271.948 215.976 271.948 217.946C271.948 219.897 271.364 221.684 270.197 223.307C269.03 224.931 267.161 226.235 264.589 227.219C262.036 228.204 259.036 228.697 255.589 228.697C251.814 228.697 248.969 228.022 247.054 226.672C245.723 225.724 245.057 224.566 245.057 223.198C245.057 222.651 245.176 222.195 245.413 221.83C245.65 221.466 246.133 221.055 246.863 220.599C248.395 219.651 249.726 218.73 250.857 217.836C249.471 217.344 248.486 216.724 247.902 215.976C247.337 215.228 247.054 214.362 247.054 213.377C247.054 212.794 247.127 212.356 247.273 212.064C247.437 211.772 247.774 211.417 248.285 210.997C250.164 209.52 251.522 208.399 252.361 207.633C250.811 206.885 249.689 206.019 248.996 205.034C248.012 203.648 247.519 201.97 247.519 200C247.519 197.174 248.477 194.867 250.392 193.079C252.306 191.292 255.024 190.398 258.544 190.398C259.419 190.398 260.294 190.481 261.17 190.645C262.063 190.809 262.957 191.055 263.851 191.383C265.893 191.42 266.96 191.438 267.051 191.438C268.857 191.438 270.626 191.31 272.358 191.055ZM254.741 198.769C254.741 201.541 255.224 203.639 256.191 205.061C256.756 205.9 257.541 206.32 258.544 206.32C259.382 206.32 260.103 205.891 260.705 205.034C261.325 204.158 261.635 202.526 261.635 200.137C261.635 197.329 261.197 195.277 260.322 193.982C259.756 193.161 258.972 192.751 257.969 192.751C257.075 192.751 256.309 193.189 255.671 194.064C255.051 194.921 254.741 196.49 254.741 198.769ZM253.647 218.274C251.933 219.605 251.075 220.882 251.075 222.104C251.075 222.943 251.577 223.745 252.58 224.511C253.601 225.277 255.142 225.66 257.203 225.66C259.957 225.66 262.109 225.168 263.659 224.183C265.227 223.198 266.012 222.076 266.012 220.818C266.012 220.052 265.738 219.487 265.191 219.122C264.48 218.63 263.012 218.383 260.787 218.383L257.395 218.438C256.793 218.438 255.544 218.383 253.647 218.274ZM273.234 182.739V180.769C276.133 180.094 278.258 179.52 279.608 179.046C280.975 178.553 282.443 177.879 284.012 177.021L285.38 177.87C285.179 179.602 285.015 181.873 284.887 184.681C284.723 188.675 284.641 191.757 284.641 193.927V195.596C286.939 193.262 288.589 191.821 289.592 191.274C290.595 190.727 291.836 190.453 293.313 190.453C295.319 190.453 296.851 190.918 297.909 191.848C298.985 192.778 299.632 193.982 299.851 195.459C299.997 196.481 300.07 199.563 300.07 204.706C300.07 208.882 300.106 211.481 300.179 212.502C300.234 213.231 300.407 213.751 300.699 214.061C300.991 214.371 301.802 214.7 303.134 215.046C303.371 215.101 303.726 215.192 304.2 215.32V217.235C301.082 217.034 298.62 216.934 296.814 216.934C294.899 216.934 292.492 217.034 289.592 217.235V215.32C291.197 214.9 292.146 214.517 292.437 214.171C292.747 213.806 292.902 213.031 292.902 211.845C292.902 204.076 292.893 200.037 292.875 199.727C292.766 198.25 292.41 197.21 291.808 196.608C291.206 195.988 290.377 195.678 289.319 195.678C288.316 195.678 287.395 196.016 286.556 196.69C285.717 197.347 285.161 198.25 284.887 199.399C284.705 200.183 284.614 202.426 284.614 206.128C284.614 210.213 284.65 212.538 284.723 213.104C284.796 213.669 285.015 214.116 285.38 214.444C285.744 214.772 286.583 215.064 287.896 215.32V217.235C285.051 217.034 282.799 216.934 281.139 216.934C280.027 216.934 277.392 217.034 273.234 217.235V215.32C273.544 215.228 273.781 215.165 273.945 215.128C275.422 214.763 276.288 214.444 276.544 214.171C276.908 213.751 277.127 212.931 277.2 211.709C277.346 209.101 277.419 204.067 277.419 196.608L277.337 184.681C277.337 183.915 277.191 183.368 276.899 183.04C276.608 182.693 276.197 182.52 275.668 182.52C274.975 182.52 274.164 182.593 273.234 182.739ZM323.267 191.329L323.623 191.712C323.039 192.733 322.52 193.791 322.064 194.885C320.112 194.684 318.006 194.538 315.745 194.447L315.662 197.702L315.58 201.45L315.498 205.171C315.498 208.654 315.781 210.842 316.346 211.736C316.93 212.611 317.687 213.049 318.617 213.049C319.328 213.049 320.477 212.703 322.064 212.01L323.049 213.979C320.295 215.639 318.462 216.633 317.55 216.961C316.328 217.399 315.161 217.617 314.048 217.617C312.352 217.617 310.994 217.079 309.972 216.003C308.969 214.928 308.468 213.341 308.468 211.244L308.577 204.924L308.796 194.447L306.58 194.392C306.38 194.392 305.814 194.411 304.884 194.447V192.423C306.635 191.803 308.24 190.791 309.699 189.386C311.176 187.982 312.662 185.903 314.158 183.149H316.565C316.091 186.177 315.817 188.903 315.745 191.329C317.331 191.365 318.298 191.383 318.644 191.383C319.319 191.383 320.86 191.365 323.267 191.329ZM326.003 208.18H328.465C328.939 210.696 329.723 212.493 330.818 213.569C331.93 214.627 333.216 215.155 334.675 215.155C335.787 215.155 336.663 214.864 337.301 214.28C337.957 213.678 338.286 212.949 338.286 212.092C338.286 211.307 337.967 210.551 337.328 209.821C336.69 209.092 335.058 207.97 332.432 206.456C329.824 204.943 328.082 203.566 327.207 202.326C326.313 201.085 325.866 199.699 325.866 198.168C325.866 195.924 326.769 194.028 328.574 192.478C330.38 190.909 332.97 190.125 336.343 190.125C338.769 190.125 341.258 190.672 343.812 191.766C343.575 192.769 343.31 195.058 343.018 198.633L340.638 198.55C340.255 196.38 339.599 194.848 338.669 193.955C337.757 193.061 336.69 192.614 335.468 192.614C334.465 192.614 333.681 192.879 333.115 193.408C332.568 193.918 332.295 194.584 332.295 195.405C332.295 196.116 332.541 196.763 333.033 197.347C333.708 198.149 335.213 199.207 337.547 200.52C340.483 202.18 342.398 203.611 343.292 204.815C344.185 206.019 344.632 207.432 344.632 209.055C344.632 211.262 343.793 213.286 342.116 215.128C340.438 216.97 337.547 217.891 333.444 217.891C331.073 217.891 328.465 217.472 325.62 216.633C325.857 213.423 325.985 210.605 326.003 208.18ZM360.936 180.441V178.417C364.201 178.617 366.891 178.718 369.006 178.718C371.268 178.718 373.721 178.617 376.365 178.417C377.131 180.496 378.134 182.958 379.374 185.803C382.766 193.462 385.766 199.964 388.374 205.307L395.268 190.426C396.362 188 397.228 186.012 397.867 184.462C398.523 182.894 399.307 180.879 400.219 178.417C403.684 178.617 406.201 178.718 407.769 178.718C409.119 178.718 411.563 178.617 415.101 178.417V180.441C414.554 180.55 414.143 180.623 413.87 180.66C411.517 181.061 410.149 181.426 409.766 181.754C409.402 182.082 409.165 182.766 409.055 183.806C408.964 184.827 408.918 188.958 408.918 196.198C408.918 205.389 408.928 210.186 408.946 210.587C409 212.028 409.101 212.912 409.247 213.241C409.411 213.569 409.611 213.806 409.849 213.952C410.487 214.317 411.827 214.654 413.87 214.964L415.101 215.21V217.235C410.687 217.034 407.323 216.934 405.007 216.934C402.617 216.934 399.089 217.034 394.42 217.235V215.21C397.301 214.681 398.915 214.344 399.262 214.198C399.627 214.034 399.9 213.824 400.082 213.569C400.265 213.314 400.383 212.967 400.438 212.529C400.511 212.092 400.548 210.222 400.548 206.921C400.584 199.754 400.602 194.155 400.602 190.125C400.602 189.742 400.593 188.547 400.575 186.541C399.572 188.62 395.906 196.718 389.578 210.833L386.815 216.934H384.709C382.648 212.283 378.006 202.089 370.784 186.35C370.748 188.739 370.73 190.763 370.73 192.423C370.73 201.523 370.812 207.541 370.976 210.478C371.067 212.155 371.158 213.095 371.249 213.295C371.377 213.642 371.651 213.924 372.07 214.143C372.49 214.362 373.73 214.645 375.791 214.991C376.046 215.046 376.42 215.119 376.912 215.21V217.235C374.322 217.034 371.824 216.934 369.417 216.934C366.991 216.934 364.228 217.034 361.128 217.235V215.21C363.499 214.791 364.939 214.49 365.45 214.307C365.961 214.125 366.344 213.824 366.599 213.405C366.854 212.985 366.982 212.201 366.982 211.052L367.31 193.654C367.365 190.608 367.392 188.347 367.392 186.87C367.392 184.59 367.274 183.094 367.037 182.383C366.891 181.946 366.608 181.617 366.189 181.398C365.787 181.18 364.465 180.924 362.222 180.632C361.93 180.596 361.502 180.532 360.936 180.441ZM439.01 209.821L440.432 211.9C437.569 214.326 434.934 216.086 432.526 217.18C431.487 217.654 430.156 217.891 428.533 217.891C425.14 217.891 422.551 216.888 420.763 214.882C418.502 212.365 417.371 209.01 417.371 204.815C417.371 200.456 418.666 196.918 421.256 194.201C423.846 191.484 427.055 190.125 430.885 190.125C434.387 190.125 436.949 191.183 438.572 193.298C439.648 194.684 440.268 196.845 440.432 199.782C439.52 200.383 438.672 201.067 437.888 201.833C435.973 201.76 434.022 201.724 432.034 201.724C429.444 201.724 427.037 201.76 424.812 201.833C424.794 202.234 424.785 202.572 424.785 202.845C424.785 205.417 425.368 207.678 426.536 209.63C427.721 211.581 429.49 212.557 431.843 212.557C432.992 212.557 434.086 212.365 435.125 211.982C436.183 211.599 437.478 210.879 439.01 209.821ZM424.867 199.016C425.888 199.052 426.727 199.07 427.384 199.07C428.952 199.07 430.867 198.997 433.128 198.851C433.019 196.535 432.627 194.994 431.952 194.228C431.295 193.462 430.384 193.079 429.216 193.079C428.086 193.079 427.119 193.535 426.317 194.447C425.514 195.359 425.031 196.882 424.867 199.016ZM465.326 209.821L466.749 211.9C463.885 214.326 461.25 216.086 458.843 217.18C457.803 217.654 456.472 217.891 454.849 217.891C451.457 217.891 448.867 216.888 447.08 214.882C444.818 212.365 443.688 209.01 443.688 204.815C443.688 200.456 444.982 196.918 447.572 194.201C450.162 191.484 453.372 190.125 457.201 190.125C460.703 190.125 463.265 191.183 464.888 193.298C465.964 194.684 466.584 196.845 466.749 199.782C465.837 200.383 464.989 201.067 464.204 201.833C462.29 201.76 460.338 201.724 458.35 201.724C455.761 201.724 453.353 201.76 451.128 201.833C451.11 202.234 451.101 202.572 451.101 202.845C451.101 205.417 451.685 207.678 452.852 209.63C454.037 211.581 455.806 212.557 458.159 212.557C459.308 212.557 460.402 212.365 461.442 211.982C462.499 211.599 463.794 210.879 465.326 209.821ZM451.183 199.016C452.204 199.052 453.043 199.07 453.7 199.07C455.268 199.07 457.183 198.997 459.445 198.851C459.335 196.535 458.943 194.994 458.268 194.228C457.612 193.462 456.7 193.079 455.533 193.079C454.402 193.079 453.435 193.535 452.633 194.447C451.831 195.359 451.347 196.882 451.183 199.016ZM487.129 191.329L487.484 191.712C486.901 192.733 486.381 193.791 485.925 194.885C483.974 194.684 481.867 194.538 479.606 194.447L479.524 197.702L479.442 201.45L479.36 205.171C479.36 208.654 479.642 210.842 480.208 211.736C480.791 212.611 481.548 213.049 482.478 213.049C483.189 213.049 484.338 212.703 485.925 212.01L486.91 213.979C484.156 215.639 482.323 216.633 481.411 216.961C480.189 217.399 479.022 217.617 477.91 217.617C476.214 217.617 474.855 217.079 473.834 216.003C472.831 214.928 472.329 213.341 472.329 211.244L472.439 204.924L472.657 194.447L470.442 194.392C470.241 194.392 469.676 194.411 468.746 194.447V192.423C470.496 191.803 472.101 190.791 473.56 189.386C475.037 187.982 476.524 185.903 478.019 183.149H480.426C479.952 186.177 479.679 188.903 479.606 191.329C481.192 191.365 482.159 191.383 482.506 191.383C483.18 191.383 484.721 191.365 487.129 191.329ZM522.91 178.417V180.441L521.898 180.578C519.472 180.87 518.013 181.234 517.521 181.672C517.047 182.11 516.81 182.958 516.81 184.216V185.201L516.755 194.365L516.782 204.842L516.81 210.177C516.81 211.745 516.883 212.73 517.029 213.131C517.193 213.532 517.466 213.833 517.849 214.034C518.506 214.38 519.855 214.718 521.898 215.046C522.117 215.083 522.454 215.137 522.91 215.21V217.235C519.171 217.034 515.88 216.934 513.035 216.934C510.335 216.934 506.761 217.034 502.311 217.235V215.21C505.156 214.681 506.715 214.362 506.989 214.253C507.408 214.089 507.728 213.852 507.946 213.541C508.22 213.122 508.366 212.265 508.384 210.97C508.421 207.943 508.439 202.791 508.439 195.514L508.357 185.556V184.736C508.357 183.277 508.147 182.338 507.728 181.918C507.308 181.499 505.895 181.088 503.487 180.687C503.214 180.632 502.822 180.55 502.311 180.441V178.417C506.998 178.617 510.509 178.718 512.843 178.718C515.342 178.718 518.697 178.617 522.91 178.417ZM523.977 196.006V194.037C526.384 193.526 528.381 192.988 529.968 192.423C531.573 191.857 533.159 191.137 534.728 190.262L536.15 191.082C535.895 192.468 535.722 193.982 535.63 195.623C537.655 193.326 539.178 191.885 540.199 191.301C541.22 190.699 542.424 190.398 543.81 190.398C545.178 190.398 546.354 190.663 547.339 191.192C548.342 191.721 549.08 192.395 549.555 193.216C550.047 194.019 550.366 195.104 550.512 196.471C550.603 197.329 550.649 199.389 550.649 202.654L550.621 207.523C550.621 210.66 550.658 212.511 550.731 213.076C550.804 213.624 550.977 214.025 551.251 214.28C551.542 214.517 552.354 214.782 553.685 215.073C553.904 215.128 554.251 215.21 554.725 215.32V217.235C551.679 217.034 549.318 216.934 547.64 216.934C545.944 216.934 543.445 217.034 540.144 217.235V215.32C541.548 214.973 542.406 214.663 542.716 214.39C543.026 214.098 543.217 213.624 543.29 212.967C543.4 212.055 543.454 209.037 543.454 203.912C543.454 200.283 543.299 198.095 542.989 197.347C542.479 196.161 541.521 195.569 540.117 195.569C539.096 195.569 538.156 195.933 537.299 196.663C536.46 197.392 535.922 198.323 535.685 199.453C535.448 200.584 535.33 203.073 535.33 206.921C535.33 210.368 535.403 212.511 535.548 213.35C535.621 213.806 535.786 214.143 536.041 214.362C536.296 214.563 537.153 214.882 538.612 215.32V217.235C535.84 217.034 533.524 216.934 531.664 216.934C529.931 216.934 527.369 217.034 523.977 217.235V215.32C525.983 214.791 527.114 214.408 527.369 214.171C527.643 213.934 527.825 213.386 527.916 212.529C528.08 210.56 528.162 208.006 528.162 204.87C528.162 200.073 528.108 197.438 527.998 196.964C527.779 196.161 527.223 195.76 526.33 195.76C525.764 195.76 524.98 195.842 523.977 196.006ZM573.792 191.329L574.147 191.712C573.564 192.733 573.044 193.791 572.588 194.885C570.637 194.684 568.53 194.538 566.269 194.447L566.187 197.702L566.105 201.45L566.023 205.171C566.023 208.654 566.305 210.842 566.871 211.736C567.454 212.611 568.211 213.049 569.141 213.049C569.853 213.049 571.002 212.703 572.588 212.01L573.573 213.979C570.819 215.639 568.986 216.633 568.074 216.961C566.853 217.399 565.685 217.617 564.573 217.617C562.877 217.617 561.518 217.079 560.497 216.003C559.494 214.928 558.992 213.341 558.992 211.244L559.102 204.924L559.321 194.447L557.105 194.392C556.904 194.392 556.339 194.411 555.409 194.447V192.423C557.16 191.803 558.764 190.791 560.223 189.386C561.701 187.982 563.187 185.903 564.682 183.149H567.09C566.615 186.177 566.342 188.903 566.269 191.329C567.856 191.365 568.822 191.383 569.169 191.383C569.843 191.383 571.385 191.365 573.792 191.329ZM597.619 209.821L599.041 211.9C596.178 214.326 593.543 216.086 591.135 217.18C590.096 217.654 588.765 217.891 587.141 217.891C583.749 217.891 581.16 216.888 579.372 214.882C577.111 212.365 575.98 209.01 575.98 204.815C575.98 200.456 577.275 196.918 579.865 194.201C582.455 191.484 585.664 190.125 589.494 190.125C592.996 190.125 595.558 191.183 597.181 193.298C598.257 194.684 598.877 196.845 599.041 199.782C598.129 200.383 597.281 201.067 596.497 201.833C594.582 201.76 592.631 201.724 590.643 201.724C588.053 201.724 585.646 201.76 583.421 201.833C583.403 202.234 583.394 202.572 583.394 202.845C583.394 205.417 583.977 207.678 585.144 209.63C586.33 211.581 588.099 212.557 590.452 212.557C591.6 212.557 592.695 212.365 593.734 211.982C594.792 211.599 596.087 210.879 597.619 209.821ZM583.476 199.016C584.497 199.052 585.336 199.07 585.993 199.07C587.561 199.07 589.476 198.997 591.737 198.851C591.628 196.535 591.236 194.994 590.561 194.228C589.904 193.462 588.993 193.079 587.825 193.079C586.695 193.079 585.728 193.535 584.926 194.447C584.123 195.359 583.64 196.882 583.476 199.016ZM601.011 182.739V180.824C603.692 180.186 605.743 179.611 607.166 179.101C608.607 178.59 610.157 177.897 611.816 177.021L613.157 177.979C612.902 180.313 612.701 183.067 612.555 186.24C612.427 189.414 612.364 193.016 612.364 197.046C612.364 205.727 612.382 210.642 612.418 211.791C612.473 212.921 612.646 213.642 612.938 213.952C613.376 214.426 614.543 214.882 616.44 215.32V217.235C613.576 217.034 610.987 216.934 608.67 216.934C606.3 216.934 603.683 217.034 600.819 217.235V215.32C602.844 214.864 604.038 214.444 604.403 214.061C604.768 213.678 604.987 212.821 605.06 211.49C605.169 209.557 605.224 204.423 605.224 196.088C605.224 188.411 605.169 184.307 605.06 183.778C604.895 182.939 604.266 182.52 603.172 182.52C602.68 182.52 601.959 182.593 601.011 182.739ZM617.917 182.739V180.824C620.598 180.186 622.649 179.611 624.072 179.101C625.513 178.59 627.063 177.897 628.722 177.021L630.063 177.979C629.807 180.313 629.607 183.067 629.461 186.24C629.333 189.414 629.269 193.016 629.269 197.046C629.269 205.727 629.288 210.642 629.324 211.791C629.379 212.921 629.552 213.642 629.844 213.952C630.282 214.426 631.449 214.882 633.345 215.32V217.235C630.482 217.034 627.892 216.934 625.576 216.934C623.206 216.934 620.588 217.034 617.725 217.235V215.32C619.75 214.864 620.944 214.444 621.309 214.061C621.674 213.678 621.892 212.821 621.965 211.49C622.075 209.557 622.13 204.423 622.13 196.088C622.13 188.411 622.075 184.307 621.965 183.778C621.801 182.939 621.172 182.52 620.078 182.52C619.585 182.52 618.865 182.593 617.917 182.739ZM643.33 177.404C644.552 177.404 645.592 177.842 646.449 178.718C647.324 179.575 647.762 180.614 647.762 181.836C647.762 183.058 647.324 184.107 646.449 184.982C645.592 185.839 644.552 186.268 643.33 186.268C642.108 186.268 641.06 185.839 640.184 184.982C639.327 184.107 638.899 183.058 638.899 181.836C638.899 180.614 639.327 179.575 640.184 178.718C641.042 177.842 642.09 177.404 643.33 177.404ZM635.397 195.788V193.818C639.537 193.088 643.111 191.821 646.121 190.015L647.516 190.754C647.26 192.961 647.096 194.93 647.023 196.663C646.896 199.234 646.832 203.301 646.832 208.864C646.832 211.198 646.914 212.684 647.078 213.323C647.187 213.742 647.397 214.061 647.707 214.28C648.036 214.481 649.13 214.827 650.99 215.32V217.235C648.455 217.034 646.139 216.934 644.042 216.934C642.035 216.934 639.108 217.034 635.26 217.235V215.32L635.972 215.155C637.576 214.791 638.525 214.481 638.817 214.225C639.108 213.952 639.291 213.478 639.364 212.803C639.528 211.07 639.61 207.496 639.61 202.079C639.61 198.943 639.528 197.119 639.364 196.608C639.145 195.933 638.625 195.596 637.804 195.596C637.093 195.596 636.291 195.66 635.397 195.788ZM679.96 191.055L680.233 191.575C679.631 192.56 679.103 193.599 678.647 194.693C677.479 194.474 676.285 194.356 675.063 194.338C675.993 195.979 676.458 197.584 676.458 199.152C676.458 200.885 676.02 202.471 675.145 203.912C674.288 205.353 672.975 206.502 671.206 207.359C669.455 208.216 667.613 208.645 665.68 208.645C665.261 208.645 664.759 208.617 664.175 208.563C663.592 208.508 662.926 208.435 662.178 208.344C661.03 209.383 660.455 210.204 660.455 210.806C660.455 211.134 660.665 211.408 661.084 211.627C661.741 211.973 663.364 212.146 665.954 212.146L670.467 212.092C674.151 212.092 676.586 212.575 677.771 213.541C678.957 214.508 679.549 215.976 679.549 217.946C679.549 219.897 678.966 221.684 677.799 223.307C676.631 224.931 674.762 226.235 672.191 227.219C669.637 228.204 666.637 228.697 663.191 228.697C659.416 228.697 656.571 228.022 654.656 226.672C653.324 225.724 652.659 224.566 652.659 223.198C652.659 222.651 652.777 222.195 653.014 221.83C653.251 221.466 653.735 221.055 654.464 220.599C655.996 219.651 657.327 218.73 658.458 217.836C657.072 217.344 656.087 216.724 655.504 215.976C654.938 215.228 654.656 214.362 654.656 213.377C654.656 212.794 654.729 212.356 654.874 212.064C655.039 211.772 655.376 211.417 655.887 210.997C657.765 209.52 659.124 208.399 659.963 207.633C658.412 206.885 657.291 206.019 656.598 205.034C655.613 203.648 655.121 201.97 655.121 200C655.121 197.174 656.078 194.867 657.993 193.079C659.908 191.292 662.625 190.398 666.145 190.398C667.02 190.398 667.896 190.481 668.771 190.645C669.665 190.809 670.558 191.055 671.452 191.383C673.495 191.42 674.562 191.438 674.653 191.438C676.458 191.438 678.227 191.31 679.96 191.055ZM662.343 198.769C662.343 201.541 662.826 203.639 663.792 205.061C664.358 205.9 665.142 206.32 666.145 206.32C666.984 206.32 667.704 205.891 668.306 205.034C668.926 204.158 669.236 202.526 669.236 200.137C669.236 197.329 668.799 195.277 667.923 193.982C667.358 193.161 666.574 192.751 665.571 192.751C664.677 192.751 663.911 193.189 663.273 194.064C662.653 194.921 662.343 196.49 662.343 198.769ZM661.248 218.274C659.534 219.605 658.677 220.882 658.677 222.104C658.677 222.943 659.178 223.745 660.181 224.511C661.203 225.277 662.744 225.66 664.805 225.66C667.558 225.66 669.71 225.168 671.261 224.183C672.829 223.198 673.613 222.076 673.613 220.818C673.613 220.052 673.34 219.487 672.792 219.122C672.081 218.63 670.613 218.383 668.388 218.383L664.996 218.438C664.394 218.438 663.145 218.383 661.248 218.274ZM703.048 209.821L704.471 211.9C701.607 214.326 698.972 216.086 696.565 217.18C695.525 217.654 694.194 217.891 692.571 217.891C689.179 217.891 686.589 216.888 684.802 214.882C682.54 212.365 681.41 209.01 681.41 204.815C681.41 200.456 682.704 196.918 685.294 194.201C687.884 191.484 691.094 190.125 694.923 190.125C698.425 190.125 700.987 191.183 702.61 193.298C703.686 194.684 704.306 196.845 704.471 199.782C703.559 200.383 702.711 201.067 701.926 201.833C700.012 201.76 698.06 201.724 696.072 201.724C693.483 201.724 691.075 201.76 688.85 201.833C688.832 202.234 688.823 202.572 688.823 202.845C688.823 205.417 689.407 207.678 690.574 209.63C691.759 211.581 693.528 212.557 695.881 212.557C697.03 212.557 698.124 212.365 699.163 211.982C700.221 211.599 701.516 210.879 703.048 209.821ZM688.905 199.016C689.926 199.052 690.765 199.07 691.422 199.07C692.99 199.07 694.905 198.997 697.167 198.851C697.057 196.535 696.665 194.994 695.99 194.228C695.334 193.462 694.422 193.079 693.255 193.079C692.124 193.079 691.157 193.535 690.355 194.447C689.552 195.359 689.069 196.882 688.905 199.016ZM706.55 196.006V194.037C708.957 193.526 710.954 192.988 712.54 192.423C714.145 191.857 715.732 191.137 717.3 190.262L718.723 191.082C718.468 192.468 718.294 193.982 718.203 195.623C720.227 193.326 721.75 191.885 722.772 191.301C723.793 190.699 724.996 190.398 726.383 190.398C727.75 190.398 728.927 190.663 729.911 191.192C730.914 191.721 731.653 192.395 732.127 193.216C732.62 194.019 732.939 195.104 733.085 196.471C733.176 197.329 733.221 199.389 733.221 202.654L733.194 207.523C733.194 210.66 733.231 212.511 733.304 213.076C733.376 213.624 733.55 214.025 733.823 214.28C734.115 214.517 734.927 214.782 736.258 215.073C736.477 215.128 736.823 215.21 737.297 215.32V217.235C734.252 217.034 731.89 216.934 730.212 216.934C728.516 216.934 726.018 217.034 722.717 217.235V215.32C724.121 214.973 724.978 214.663 725.288 214.39C725.598 214.098 725.79 213.624 725.863 212.967C725.972 212.055 726.027 209.037 726.027 203.912C726.027 200.283 725.872 198.095 725.562 197.347C725.051 196.161 724.094 195.569 722.689 195.569C721.668 195.569 720.729 195.933 719.872 196.663C719.033 197.392 718.495 198.323 718.258 199.453C718.021 200.584 717.902 203.073 717.902 206.921C717.902 210.368 717.975 212.511 718.121 213.35C718.194 213.806 718.358 214.143 718.613 214.362C718.869 214.563 719.726 214.882 721.185 215.32V217.235C718.413 217.034 716.097 216.934 714.237 216.934C712.504 216.934 709.942 217.034 706.55 217.235V215.32C708.556 214.791 709.686 214.408 709.942 214.171C710.215 213.934 710.398 213.386 710.489 212.529C710.653 210.56 710.735 208.006 710.735 204.87C710.735 200.073 710.68 197.438 710.571 196.964C710.352 196.161 709.796 195.76 708.902 195.76C708.337 195.76 707.553 195.842 706.55 196.006ZM760.194 200.055L757.732 199.918C757.55 197.329 757.012 195.532 756.118 194.529C755.243 193.526 754.13 193.025 752.781 193.025C751.103 193.025 749.763 193.663 748.76 194.94C747.428 196.654 746.763 199.125 746.763 202.353C746.763 205.654 747.492 208.161 748.951 209.876C750.41 211.59 752.152 212.447 754.176 212.447C755.07 212.447 755.963 212.31 756.857 212.037C757.769 211.745 758.982 211.189 760.495 210.368L761.781 212.447C758.735 214.818 756.501 216.314 755.079 216.934C753.675 217.572 752.17 217.891 750.565 217.891C747.319 217.891 744.629 216.76 742.495 214.499C740.361 212.219 739.294 209.137 739.294 205.253C739.294 201.113 740.544 197.557 743.042 194.584C745.541 191.611 749.015 190.125 753.465 190.125C756.036 190.125 758.808 190.809 761.781 192.177C761.416 193.636 761.061 195.359 760.714 197.347C760.495 198.514 760.322 199.417 760.194 200.055ZM785.991 209.821L787.413 211.9C784.55 214.326 781.915 216.086 779.507 217.18C778.468 217.654 777.137 217.891 775.514 217.891C772.121 217.891 769.532 216.888 767.744 214.882C765.483 212.365 764.352 209.01 764.352 204.815C764.352 200.456 765.647 196.918 768.237 194.201C770.827 191.484 774.036 190.125 777.866 190.125C781.368 190.125 783.93 191.183 785.553 193.298C786.629 194.684 787.249 196.845 787.413 199.782C786.501 200.383 785.653 201.067 784.869 201.833C782.954 201.76 781.003 201.724 779.015 201.724C776.425 201.724 774.018 201.76 771.793 201.833C771.775 202.234 771.766 202.572 771.766 202.845C771.766 205.417 772.349 207.678 773.517 209.63C774.702 211.581 776.471 212.557 778.824 212.557C779.973 212.557 781.067 212.365 782.106 211.982C783.164 211.599 784.459 210.879 785.991 209.821ZM771.848 199.016C772.869 199.052 773.708 199.07 774.365 199.07C775.933 199.07 777.848 198.997 780.109 198.851C780 196.535 779.608 194.994 778.933 194.228C778.276 193.462 777.365 193.079 776.197 193.079C775.067 193.079 774.1 193.535 773.298 194.447C772.495 195.359 772.012 196.882 771.848 199.016Z" fill="#374151"/>
</svg>
